<svg width="48" height="55" viewBox="0 0 48 55" fill="none" xmlns="http://www.w3.org/2000/svg">
<path d="M27.5485 19.4338L35.6216 11.4023C35.8158 11.2081 35.9615 10.9931 36.0586 10.7572C36.1557 10.5214 36.2042 10.2787 36.2042 10.029C36.2042 9.77932 36.1557 9.53657 36.0586 9.30076C35.9615 9.06494 35.8158 8.84994 35.6216 8.65574L27.5069 0.540983C27.1462 0.180328 26.6885 0 26.1336 0C25.5788 0 25.1071 0.194199 24.7187 0.582598C24.3581 0.970996 24.1777 1.43569 24.1777 1.97667C24.1777 2.51765 24.3719 2.98235 24.7603 3.37074L31.4186 10.029L24.7187 16.7289C24.3303 17.1173 24.1431 17.5681 24.1569 18.0813C24.1708 18.5946 24.3719 19.0454 24.7603 19.4338C25.1487 19.8222 25.6134 20.0164 26.1544 20.0164C26.6954 20.0164 27.1601 19.8222 27.5485 19.4338ZM1.9558 24.2194C2.51066 24.2194 2.97535 24.0322 3.34987 23.6576C3.7244 23.2831 3.91166 22.8184 3.91166 22.2636V17.0202C3.91166 15.5221 4.38329 14.3083 5.32654 13.3789C6.2698 12.4496 7.47661 11.9849 8.94697 11.9849H19.9747L15.2307 16.7289C14.8423 17.1173 14.662 17.5681 14.6897 18.0813C14.7175 18.5946 14.9255 19.0454 15.3139 19.4338C15.7023 19.8222 16.167 20.0164 16.708 20.0164C17.249 20.0164 17.6998 19.8222 18.0605 19.4338L26.092 11.4023C26.2862 11.2081 26.4318 10.9931 26.5289 10.7572C26.626 10.5214 26.6746 10.2787 26.6746 10.029C26.6746 9.77932 26.626 9.53657 26.5289 9.30076C26.4318 9.06494 26.2862 8.84994 26.092 8.65574L18.0189 0.540983C17.6582 0.180328 17.2004 0 16.6456 0C16.0907 0 15.6191 0.194199 15.2307 0.582598C14.8701 0.970996 14.6897 1.43569 14.6897 1.97667C14.6897 2.51765 14.8839 2.98235 15.2723 3.37074L19.9747 8.07314H8.94697C6.42238 8.07314 4.30006 8.93316 2.58001 10.6532C0.859963 12.3733 -6.44028e-05 14.4956 -6.44028e-05 17.0202V22.2636C-6.44028e-05 22.8184 0.187199 23.2831 0.561726 23.6576C0.936253 24.0322 1.40095 24.2194 1.9558 24.2194Z" fill="white"/>
<mask id="mask0_1158_4635" style="mask-type:alpha" maskUnits="userSpaceOnUse" x="11" y="18" width="37" height="37">
<rect x="11.8184" y="18.9343" width="36.0656" height="36.0656" fill="#D9D9D9"/>
</mask>
<g mask="url(#mask0_1158_4635)">
</g>
<path d="M29.8511 52.934C27.647 52.934 25.5745 52.5208 23.6335 51.6942C21.6925 50.8677 19.9956 49.7282 18.543 48.2755C17.0903 46.8229 15.9508 45.1261 15.1243 43.185C14.2978 41.244 13.8845 39.1715 13.8845 36.9675C13.8845 34.7384 14.2978 32.6534 15.1243 30.7124C15.9508 28.7713 17.0903 27.0808 18.543 25.6406C19.9956 24.2005 21.6925 23.0609 23.6335 22.2219C25.5745 21.3829 27.647 20.9634 29.8511 20.9634C32.0801 20.9634 34.1651 21.3829 36.1062 22.2219C38.0472 23.0609 39.7378 24.2005 41.1779 25.6406C42.618 27.0808 43.7576 28.7713 44.5966 30.7124C45.4356 32.6534 45.8551 34.7384 45.8551 36.9675C45.8551 39.1715 45.4356 41.244 44.5966 43.185C43.7576 45.1261 42.618 46.8229 41.1779 48.2755C39.7378 49.7282 38.0472 50.8677 36.1062 51.6942C34.1651 52.5208 32.0801 52.934 29.8511 52.934ZM29.8511 49.4026C33.3073 49.4026 36.2439 48.1941 38.6608 45.7772C41.0777 43.3603 42.2862 40.4238 42.2862 36.9675C42.2862 33.5112 41.0777 30.5746 38.6608 28.1577C36.2439 25.7408 33.3073 24.5324 29.8511 24.5324C26.3948 24.5324 23.4582 25.7408 21.0413 28.1577C18.6244 30.5746 17.4159 33.5112 17.4159 36.9675C17.4159 40.4238 18.6244 43.3603 21.0413 45.7772C23.4582 48.1941 26.3948 49.4026 29.8511 49.4026Z" fill="white"/>
</svg>
