<svg width="55" height="55" viewBox="0 0 55 55" fill="none" xmlns="http://www.w3.org/2000/svg">
<g opacity="0.9">
<mask id="mask0_742_4649" style="mask-type:alpha" maskUnits="userSpaceOnUse" x="0" y="0" width="55" height="55">
<rect width="55" height="55" fill="#D9D9D9"/>
</mask>
<g mask="url(#mask0_742_4649)">
<path d="M16.1566 52.7083L23.0889 17.1875C23.2798 16.2708 23.7191 15.5642 24.4066 15.0677C25.0941 14.5712 25.8198 14.3229 26.5837 14.3229C27.3475 14.3229 28.0637 14.4948 28.7321 14.8385C29.4005 15.1823 29.9448 15.6788 30.3649 16.3281L32.5993 19.9948C33.325 21.217 34.3276 22.3056 35.6071 23.2604C36.8866 24.2153 38.3857 24.9601 40.1045 25.4948V21.1979H42.3962V52.7083H40.1045V28.9896C38.1566 28.5694 36.3232 27.8247 34.6045 26.7552C32.8857 25.6858 31.358 24.3681 30.0212 22.8021L28.3597 31.1094L33.2295 35.75V52.7083H29.792V38.7292L24.0628 33.2865L19.8232 52.7083H16.1566ZM17.1305 29.6198L12.8337 28.8177C12.4517 28.7413 12.1175 28.4931 11.831 28.0729C11.5446 27.6528 11.4396 27.2326 11.5159 26.8125L13.2347 17.8177C13.4257 16.7101 13.9795 15.8602 14.8962 15.2682C15.8128 14.6762 16.825 14.4757 17.9326 14.6667L19.9951 15.0677L17.1305 29.6198ZM30.3649 11.8021C29.2191 11.8021 28.2356 11.3915 27.4144 10.5703C26.5932 9.74913 26.1826 8.76562 26.1826 7.61979C26.1826 6.47396 26.5932 5.49045 27.4144 4.66927C28.2356 3.84809 29.2191 3.4375 30.3649 3.4375C31.5107 3.4375 32.4942 3.84809 33.3154 4.66927C34.1366 5.49045 34.5472 6.47396 34.5472 7.61979C34.5472 8.76562 34.1366 9.74913 33.3154 10.5703C32.4942 11.3915 31.5107 11.8021 30.3649 11.8021Z" fill="white"/>
</g>
</g>
</svg>
