<svg width="55" height="45" viewBox="0 0 55 45" fill="none" xmlns="http://www.w3.org/2000/svg">
<path d="M22.6155 32.7821C23.676 33.8426 25.2091 34.3383 27.2147 34.2691C29.2204 34.1999 30.6843 33.4507 31.6064 32.0214L46.5451 8.57592L23.3763 23.7221C21.9931 24.6442 21.2554 26.1197 21.1632 28.1484C21.0709 30.1771 21.5551 31.7217 22.6155 32.7821ZM27.5259 0C30.154 0 32.8974 0.426491 35.7561 1.27947C38.6147 2.13245 41.3581 3.59635 43.9862 5.67117L40.3898 8.23012C38.315 6.8469 36.0903 5.82102 33.7158 5.15247C31.3413 4.48391 29.278 4.14964 27.5259 4.14964C21.0709 4.14964 15.5611 6.45499 10.9965 11.0657C6.43194 15.6764 4.14964 21.2784 4.14964 27.8717C4.14964 29.9466 4.43781 32.0444 5.01415 34.1654C5.59049 36.2863 6.40889 38.2458 7.46935 40.044H47.5134C48.5277 38.3842 49.3346 36.4477 49.934 34.2345C50.5334 32.0214 50.8331 29.8543 50.8331 27.7334C50.8331 25.7969 50.5449 23.7106 49.9686 21.4744C49.3922 19.2382 48.3663 17.1749 46.8909 15.2845L49.5882 11.6881C51.3402 14.2701 52.6543 16.8637 53.5303 19.4687C54.4064 22.0738 54.8905 24.6903 54.9827 27.3185C55.0749 30.0849 54.7983 32.6899 54.1528 35.1336C53.5073 37.5773 52.5621 39.8365 51.3172 41.9113C50.7639 42.9718 50.176 43.6173 49.5536 43.8478C48.9312 44.0784 48.1589 44.1937 47.2367 44.1937H7.74599C6.96217 44.1937 6.18988 43.9977 5.42911 43.6058C4.66834 43.2139 4.10353 42.6491 3.73467 41.9113C2.53589 39.6982 1.61375 37.4505 0.968249 35.1682C0.322749 32.8859 0 30.4537 0 27.8717C0 24.0449 0.726187 20.437 2.17856 17.0481C3.63093 13.6592 5.60201 10.7084 8.0918 8.19554C10.5816 5.6827 13.4979 3.68857 16.8406 2.21314C20.1834 0.737713 23.7452 0 27.5259 0Z" fill="white"/>
</svg>
