<svg width="55" height="28" viewBox="0 0 55 28" fill="none" xmlns="http://www.w3.org/2000/svg">
<path d="M0 2.75C0 1.97083 0.263543 1.31771 0.790626 0.790625C1.31771 0.263541 1.97083 0 2.75 0L46.75 0C47.5292 0 48.1823 0.263541 48.7094 0.790625C49.2365 1.31771 49.5 1.97083 49.5 2.75V8.25H52.9375C53.5333 8.25 54.026 8.44479 54.4156 8.83437C54.8052 9.22396 55 9.71667 55 10.3125V17.1875C55 17.7833 54.8052 18.276 54.4156 18.6656C54.026 19.0552 53.5333 19.25 52.9375 19.25H49.5V24.75C49.5 25.5292 49.2365 26.1823 48.7094 26.7094C48.1823 27.2365 47.5292 27.5 46.75 27.5L2.75 27.5C1.97083 27.5 1.31771 27.2365 0.790626 26.7094C0.263543 26.1823 0 25.5292 0 24.75V2.75ZM11.55 13.6125L23.8563 20.2125C24.2229 20.3958 24.5667 20.3844 24.8875 20.1781C25.2083 19.9719 25.3688 19.6854 25.3688 19.3187V15.7438H34.5812C35.1312 15.7438 35.4865 15.4802 35.6469 14.9531C35.8073 14.426 35.6354 14.0479 35.1312 13.8187L22.825 7.21875C22.4583 7.03542 22.1146 7.04687 21.7938 7.25312C21.4729 7.45937 21.3125 7.74583 21.3125 8.1125V11.6875H12.1C11.55 11.6875 11.1948 11.951 11.0344 12.4781C10.874 13.0052 11.0458 13.3833 11.55 13.6125Z" fill="white"/>
</svg>
