<svg width="55" height="55" viewBox="0 0 55 55" fill="none" xmlns="http://www.w3.org/2000/svg">
<g opacity="0.9">
<mask id="mask0_742_4644" style="mask-type:alpha" maskUnits="userSpaceOnUse" x="0" y="0" width="55" height="55">
<rect width="55" height="55" fill="#D9D9D9"/>
</mask>
<g mask="url(#mask0_742_4644)">
<path d="M20.625 5.72925V2.29175H34.375V5.72925H20.625ZM25.7812 31.3386H29.2188V18.1615H25.7812V31.3386ZM27.5 50.3595C24.6736 50.3595 22.0095 49.8152 19.5078 48.7266C17.0061 47.6381 14.8194 46.1581 12.9479 44.2865C11.0764 42.415 9.59635 40.2284 8.50781 37.7266C7.41927 35.2249 6.875 32.5608 6.875 29.7345C6.875 26.9081 7.41927 24.244 8.50781 21.7423C9.59635 19.2405 11.0764 17.0539 12.9479 15.1824C14.8194 13.3108 17.0061 11.8308 19.5078 10.7423C22.0095 9.65373 24.6736 9.10946 27.5 9.10946C30.059 9.10946 32.4653 9.53914 34.7188 10.3985C36.9722 11.2579 38.9774 12.4515 40.7344 13.9792L43.6562 11.0574L46.0625 13.4636L43.1406 16.3855C44.5156 17.9133 45.6901 19.7657 46.6641 21.9428C47.638 24.1199 48.125 26.7171 48.125 29.7345C48.125 32.5608 47.5807 35.2249 46.4922 37.7266C45.4036 40.2284 43.9236 42.415 42.0521 44.2865C40.1806 46.1581 37.9939 47.6381 35.4922 48.7266C32.9905 49.8152 30.3264 50.3595 27.5 50.3595ZM27.5 46.922C32.2743 46.922 36.3325 45.251 39.6745 41.9089C43.0165 38.5669 44.6875 34.5088 44.6875 29.7345C44.6875 24.9602 43.0165 20.902 39.6745 17.56C36.3325 14.218 32.2743 12.547 27.5 12.547C22.7257 12.547 18.6675 14.218 15.3255 17.56C11.9835 20.902 10.3125 24.9602 10.3125 29.7345C10.3125 34.5088 11.9835 38.5669 15.3255 41.9089C18.6675 45.251 22.7257 46.922 27.5 46.922Z" fill="white"/>
</g>
</g>
</svg>
