<svg width="1000" height="1000" viewBox="0 0 1000 1000" fill="none" xmlns="http://www.w3.org/2000/svg">
<circle cx="500" cy="500" r="500" fill="black"/>
<path d="M832.58 499.79C832.624 461.309 825.975 423.113 812.93 386.91H812.72C795.72 388.3 777.92 389.56 759.41 390.7C681.93 395.47 592.29 398.04 499.79 398.04C407.29 398.04 317.65 395.47 240.17 390.7C221.66 389.56 203.85 388.3 186.86 386.91H186.65C173.605 423.113 166.956 461.309 167 499.79V500.39C167 684.18 316 833.18 499.79 833.18C683.58 833.18 832.58 684.18 832.58 500.39C832.58 500.29 832.58 500.19 832.58 500.09C832.58 499.99 832.58 499.89 832.58 499.79ZM499.79 435.37C596.86 435.37 689.79 432.61 769.57 427.48C773.986 448.527 776.208 469.975 776.2 491.48C776.2 653.29 652.45 784.48 499.79 784.48C347.13 784.48 223.38 653.31 223.38 491.5C223.373 469.995 225.595 448.547 230.01 427.5C309.84 432.61 402.72 435.37 499.79 435.37Z" fill="white"/>
<path d="M262 342C269.63 328.436 278.324 315.499 288 303.31C338.7 239.25 414.78 198.51 499.84 198.51C584.9 198.51 660.98 239.25 711.68 303.31C721.308 315.504 729.955 328.441 737.54 342C757.26 343.08 776.28 344.3 794.47 345.64H794.8C787.708 332.077 779.689 319.019 770.8 306.56C710.43 222.09 611.55 167 499.79 167C388.03 167 289.15 222.09 228.8 306.6C219.91 319.059 211.891 332.117 204.8 345.68H205.13C223.3 344.31 242.32 343.09 262 342Z" fill="white"/>
</svg>
