<svg width="433" height="524" viewBox="0 0 433 524" fill="none" xmlns="http://www.w3.org/2000/svg">
<g clip-path="url(#clip0_778_6)">
<path d="M361.48 275.25V361.27C300.38 360.48 241.86 336.35 197.94 293.89V197.88H228.05C282.69 197.88 326.97 153.59 326.97 98.96C326.97 44.33 282.68 0 228.05 0C173.42 0 129.1 44.29 129.1 98.95V129.06H43.1298V197.87H129.09V237.42C77.0298 220.79 21.3398 249.5 4.69976 301.56C-11.9002 353.62 16.8098 409.31 68.8698 425.92C115.83 440.95 166.67 419.06 188.1 374.65C239 410.16 299.44 429.47 361.48 430.11H430.32V275.25H361.48ZM197.94 98.95C197.94 82.32 211.42 68.81 228.05 68.81C244.68 68.81 258.16 82.32 258.16 98.95C258.16 115.58 244.68 129.06 228.05 129.06H197.94V98.95ZM98.9898 361.78C82.3598 361.78 68.8798 348.3 68.8798 331.67C68.8798 315.04 82.3598 301.56 98.9898 301.56C115.62 301.56 129.1 315.04 129.1 331.67C129.1 348.3 115.62 361.78 98.9898 361.78Z" fill="black"/>
<path d="M395.99 246.17C416.253 246.17 432.68 229.743 432.68 209.48C432.68 189.217 416.253 172.79 395.99 172.79C375.726 172.79 359.3 189.217 359.3 209.48C359.3 229.743 375.726 246.17 395.99 246.17Z" fill="black"/>
</g>
<path d="M17 524V466H25.1194V524H17ZM22.5281 524V516.813H54.6602V524H22.5281Z" fill="black"/>
<path d="M90.572 524V466H98.6914V524H90.572Z" fill="black"/>
<path d="M144.196 524V517.147H162.335C165.79 517.147 168.496 516.172 170.454 514.222C172.412 512.216 173.391 509.82 173.391 507.035C173.391 505.14 172.959 503.441 172.095 501.937C171.232 500.377 169.965 499.151 168.295 498.259C166.682 497.368 164.782 496.922 162.594 496.922H144.196V490.069H161.385C164.264 490.069 166.538 489.345 168.208 487.896C169.936 486.392 170.8 484.247 170.8 481.461C170.8 478.675 169.907 476.558 168.122 475.11C166.337 473.605 163.976 472.853 161.039 472.853H144.196V466H161.212C165.128 466 168.381 466.696 170.972 468.089C173.621 469.427 175.608 471.209 176.932 473.438C178.314 475.667 179.005 478.118 179.005 480.793C179.005 483.913 178.113 486.643 176.328 488.983C174.6 491.323 172.038 493.161 168.64 494.499L169.331 491.991C173.189 493.329 176.184 495.362 178.314 498.092C180.503 500.767 181.597 503.942 181.597 507.62C181.597 510.684 180.819 513.442 179.265 515.893C177.71 518.345 175.464 520.323 172.527 521.827C169.648 523.276 166.107 524 161.903 524H144.196ZM138.754 524V466H146.873V524H138.754Z" fill="black"/>
<path d="M223.925 501.435V494.582H240.251C242.496 494.582 244.483 494.136 246.211 493.245C247.996 492.354 249.378 491.1 250.357 489.484C251.393 487.868 251.911 485.946 251.911 483.718C251.911 481.489 251.393 479.567 250.357 477.951C249.378 476.335 247.996 475.082 246.211 474.19C244.483 473.299 242.496 472.853 240.251 472.853H223.925V466H240.769C244.454 466 247.737 466.724 250.616 468.173C253.553 469.622 255.856 471.683 257.526 474.357C259.253 476.976 260.117 480.096 260.117 483.718C260.117 487.283 259.253 490.403 257.526 493.078C255.856 495.696 253.553 497.758 250.616 499.262C247.737 500.711 244.454 501.435 240.769 501.435H223.925ZM218.484 524V466H226.603V524H218.484Z" fill="black"/>
<path d="M296.105 524V466H304.224V524H296.105ZM301.633 524V516.813H336.011V524H301.633ZM301.633 497.758V490.905H333.16V497.758H301.633ZM301.633 473.187V466H335.579V473.187H301.633Z" fill="black"/>
<path d="M386.582 524V467.671H394.701V524H386.582ZM366.197 473.187V466H415V473.187H366.197Z" fill="black"/>
<defs>
<clipPath id="clip0_778_6">
<rect width="432.67" height="430.64" fill="black"/>
</clipPath>
</defs>
</svg>
