<?xml version="1.0" encoding="UTF-8"?>
<svg id="Layer_1" data-name="Layer 1" xmlns="http://www.w3.org/2000/svg" viewBox="0 0 581.5 592.09">
  <defs>
    <style>
      .cls-1 {
        fill: #ff0808;
      }

      .cls-1, .cls-2 {
        stroke-width: 0px;
      }
    </style>
  </defs>
  <path class="cls-2" d="m479.02,378.32v106.69c-80.27-1.63-156.41-31.63-206.91-79.71v-133.18h42.04c75.02,0,136.06-61.04,136.06-136.06S389.18,0,314.16,0s-136.06,61.04-136.06,136.06v42.03H53.44v94.03h124.65v54.57c-13.25-4.32-27.36-6.72-42.03-6.72C61.04,319.97,0,381.01,0,456.03s61.04,136.06,136.06,136.06c54.42,0,101.34-32.19,123.09-78.46,64.27,41.38,144.45,65.48,226.77,65.48h87.13v-200.79h-94.03Zm-206.91-242.26c0-23.18,18.86-42.03,42.04-42.03s42.03,18.85,42.03,42.03-18.85,42.03-42.03,42.03h-42.04v-42.03Zm-136.06,362c-23.18,0-42.03-18.85-42.03-42.03s18.85-42.03,42.03-42.03,42.03,18.85,42.03,42.03-18.85,42.03-42.03,42.03Z"/>
  <path class="cls-1" d="m526.04,227.5c30.63,0,55.46,24.83,55.46,55.46s-24.83,55.46-55.46,55.46-55.46-24.83-55.46-55.46,24.83-55.46,55.46-55.46"/>
</svg>