<svg width="433" height="431" viewBox="0 0 433 431" fill="none" xmlns="http://www.w3.org/2000/svg">
<mask id="mask0_790_274" style="mask-type:luminance" maskUnits="userSpaceOnUse" x="0" y="0" width="433" height="431">
<path d="M432.67 0H0V430.64H432.67V0Z" fill="white"/>
</mask>
<g mask="url(#mask0_790_274)">
<path d="M361.48 275.25V361.27C300.38 360.48 241.86 336.35 197.94 293.89V197.88H228.05C282.69 197.88 326.97 153.59 326.97 98.96C326.97 44.33 282.68 0 228.05 0C173.42 0 129.1 44.29 129.1 98.95V129.06H43.1303V197.87H129.09V237.42C77.0303 220.79 21.3403 249.5 4.70023 301.56C-11.8997 353.62 16.8103 409.31 68.8703 425.92C115.83 440.95 166.67 419.06 188.1 374.65C239 410.16 299.44 429.47 361.48 430.11H430.32V275.25H361.48ZM197.94 98.95C197.94 82.32 211.42 68.81 228.05 68.81C244.68 68.81 258.16 82.32 258.16 98.95C258.16 115.58 244.68 129.06 228.05 129.06H197.94V98.95ZM98.9903 361.78C82.3603 361.78 68.8803 348.3 68.8803 331.67C68.8803 315.04 82.3603 301.56 98.9903 301.56C115.62 301.56 129.1 315.04 129.1 331.67C129.1 348.3 115.62 361.78 98.9903 361.78Z" fill="black"/>
<path d="M395.991 246.17C416.254 246.17 432.681 229.743 432.681 209.48C432.681 189.217 416.254 172.79 395.991 172.79C375.727 172.79 359.301 189.217 359.301 209.48C359.301 229.743 375.727 246.17 395.991 246.17Z" fill="black"/>
</g>
</svg>
