<svg xmlns="http://www.w3.org/2000/svg" viewBox="0 0 665.58 946.24"><defs><style>.cls-1,.cls-2{fill:#231f20;}.cls-2{font-size:161px;font-family:DidotLTPro-Bold, Didot LT Pro;font-weight:700;letter-spacing:0.01em;}</style></defs><g id="Layer_2" data-name="Layer 2"><g id="Layer_1-2" data-name="Layer 1"><path class="cls-1" d="M665.58,332.79a331.87,331.87,0,0,0-19.65-112.88h-.21c-17,1.39-34.8,2.65-53.31,3.79-77.48,4.77-167.12,7.34-259.62,7.34s-182.14-2.57-259.62-7.34c-18.51-1.14-36.32-2.4-53.31-3.79h-.21A331.87,331.87,0,0,0,0,332.79v.6C0,517.18,149,666.18,332.79,666.18s332.79-149,332.79-332.79c0-.1,0-.2,0-.3S665.58,332.89,665.58,332.79ZM332.79,268.37c97.07,0,190-2.76,269.78-7.89a311.16,311.16,0,0,1,6.63,64c0,161.81-123.75,293-276.41,293S56.38,486.31,56.38,324.5a311.16,311.16,0,0,1,6.63-64C142.84,265.61,235.72,268.37,332.79,268.37Z"/><path class="cls-1" d="M95,175A294.37,294.37,0,0,1,121,136.31c50.7-64.06,126.78-104.8,211.84-104.8s161.14,40.74,211.84,104.8A294.3,294.3,0,0,1,570.54,175c19.72,1.08,38.74,2.3,56.93,3.64l.33,0a332.7,332.7,0,0,0-24-39.08C543.43,55.09,444.55,0,332.79,0S122.15,55.09,61.8,139.6a332.7,332.7,0,0,0-24,39.08l.33,0C56.3,177.31,75.32,176.09,95,175Z"/><text class="cls-2" transform="translate(20.7 897.61)">LIBPET</text></g></g></svg>